<svg xmlns="http://www.w3.org/2000/svg" width="1600" height="900" viewBox="0 0 1600 900">
  <defs>
    <linearGradient id="bg" x1="0" x2="0" y1="0" y2="1">
      <stop offset="0" stop-color="#f6f7f9"/>
      <stop offset="1" stop-color="#e6eaf0"/>
    </linearGradient>
    <radialGradient id="petal" cx="50%" cy="40%" r="70%">
      <stop offset="0" stop-color="#ffffff"/>
      <stop offset="1" stop-color="#eef2f6"/>
    </radialGradient>
    <filter id="shadow" x="-30%" y="-30%" width="160%" height="160%">
      <feGaussianBlur stdDeviation="3.2"/>
      <feColorMatrix type="matrix" values="
        0 0 0 0 0
        0 0 0 0 0
        0 0 0 0 0
        0 0 0 .25 0"/>
      <feBlend in2="SourceGraphic" mode="normal"/>
    </filter>
  </defs>

  <rect width="1600" height="900" fill="url(#bg)"/>
  <rect width="1600" height="900" fill="#000" opacity="0.03"/>

  <g opacity="0.62" filter="url(#shadow)">
    <g id="flower">
      <circle r="92" fill="url(#petal)"/>
      <g fill="none" stroke="#a9b2c1" stroke-width="7" stroke-linecap="round">
        <path d="M0-110 C10-86 10-60 0-36 C-10-60 -10-86 0-110Z"/>
        <path d="M0 110 C10 86 10 60 0 36 C-10 60 -10 86 0 110Z"/>
        <path d="M110 0 C86 10 60 10 36 0 C60 -10 86 -10 110 0Z"/>
        <path d="M-110 0 C-86 10 -60 10 -36 0 C-60 -10 -86 -10 -110 0Z"/>
        <path d="M78-78 C62-52 48-36 28-18 C36-40 52-62 78-78Z"/>
        <path d="M-78-78 C-62-52 -48-36 -28-18 C-36-40 -52-62 -78-78Z"/>
        <path d="M78 78 C62 52 48 36 28 18 C36 40 52 62 78 78Z"/>
        <path d="M-78 78 C-62 52 -48 36 -28 18 C-36 40 -52 62 -78 78Z"/>
      </g>
      <circle r="24" fill="#b9c2d1"/>
    </g>

    <use href="#flower" x="280" y="240"/>
    <use href="#flower" x="1340" y="260" transform="scale(0.82)"/>
    <use href="#flower" x="1040" y="720" transform="scale(1.05)"/>
    <use href="#flower" x="420" y="700" transform="scale(0.75)"/>
  </g>
</svg>