<svg xmlns="http://www.w3.org/2000/svg" width="1600" height="900" viewBox="0 0 1600 900">
  <defs>
    <linearGradient id="bg" x1="0" x2="0" y1="0" y2="1">
      <stop offset="0" stop-color="#f7f8fa"/>
      <stop offset="1" stop-color="#e8ebf0"/>
    </linearGradient>

    <radialGradient id="petal" cx="50%" cy="40%" r="65%">
      <stop offset="0" stop-color="#ffffff"/>
      <stop offset="1" stop-color="#f2f4f7"/>
    </radialGradient>

    <filter id="soft" x="-30%" y="-30%" width="160%" height="160%">
      <feGaussianBlur stdDeviation="2.8"/>
    </filter>

    <filter id="shadow" x="-30%" y="-30%" width="160%" height="160%">
      <feGaussianBlur stdDeviation="4"/>
      <feColorMatrix type="matrix" values="
        0 0 0 0 0
        0 0 0 0 0
        0 0 0 0 0
        0 0 0 .18 0"/>
      <feBlend in2="SourceGraphic" mode="normal"/>
    </filter>
  </defs>

  <rect width="1600" height="900" fill="url(#bg)"/>

  <!-- gentle vignette -->
  <rect width="1600" height="900" fill="#000" opacity="0.05"/>

  <!-- bigger chrysanthemums, higher contrast -->
  <g opacity="0.38" filter="url(#shadow)">
    <!-- flower symbol -->
    <g id="flower">
      <circle r="92" fill="url(#petal)"/>
      <g fill="none" stroke="#b8c0cc" stroke-width="7" stroke-linecap="round">
        <path d="M0-110 C10-86 10-60 0-36 C-10-60 -10-86 0-110Z"/>
        <path d="M0 110 C10 86 10 60 0 36 C-10 60 -10 86 0 110Z"/>
        <path d="M110 0 C86 10 60 10 36 0 C60 -10 86 -10 110 0Z"/>
        <path d="M-110 0 C-86 10 -60 10 -36 0 C-60 -10 -86 -10 -110 0Z"/>
        <path d="M78-78 C62-52 48-36 28-18 C36-40 52-62 78-78Z"/>
        <path d="M-78-78 C-62-52 -48-36 -28-18 C-36-40 -52-62 -78-78Z"/>
        <path d="M78 78 C62 52 48 36 28 18 C36 40 52 62 78 78Z"/>
        <path d="M-78 78 C-62 52 -48 36 -28 18 C-36 40 -52 62 -78 78Z"/>
      </g>
      <circle r="24" fill="#c9d1dc"/>
    </g>

    <use href="#flower" x="280" y="240"/>
    <use href="#flower" x="1340" y="260" transform="scale(0.82)"/>
    <use href="#flower" x="1040" y="720" transform="scale(1.05)"/>
    <use href="#flower" x="420" y="700" transform="scale(0.75)"/>
  </g>

  <!-- subtle noise dots -->
  <g opacity="0.10">
    <circle cx="120" cy="110" r="2" fill="#9aa3af"/>
    <circle cx="1460" cy="160" r="2" fill="#9aa3af"/>
    <circle cx="1320" cy="780" r="2" fill="#9aa3af"/>
    <circle cx="220" cy="820" r="2" fill="#9aa3af"/>
  </g>
</svg>
