<svg xmlns="http://www.w3.org/2000/svg" width="1600" height="900" viewBox="0 0 1600 900">
  <defs>
    <linearGradient id="g" x1="0" x2="0" y1="0" y2="1">
      <stop offset="0" stop-color="#f6f7f9"/>
      <stop offset="1" stop-color="#eceff3"/>
    </linearGradient>
    <filter id="blur" x="-20%" y="-20%" width="140%" height="140%">
      <feGaussianBlur stdDeviation="6"/>
    </filter>
  </defs>
  <rect width="1600" height="900" fill="url(#g)"/>
  <rect width="1600" height="900" fill="#000" opacity="0.04"/>
  <g opacity="0.16" filter="url(#blur)">
    <g transform="translate(250 220)">
      <circle r="86" fill="#ffffff"/>
      <g fill="none" stroke="#cfd6df" stroke-width="6" stroke-linecap="round">
        <path d="M0-94 C8-70 8-50 0-28 C-8-50 -8-70 0-94Z"/>
        <path d="M0 94 C8 70 8 50 0 28 C-8 50 -8 70 0 94Z"/>
        <path d="M94 0 C70 8 50 8 28 0 C50 -8 70 -8 94 0Z"/>
        <path d="M-94 0 C-70 8 -50 8 -28 0 C-50 -8 -70 -8 -94 0Z"/>
        <path d="M66-66 C52-44 40-30 22-14 C30 -32 44 -52 66 -66Z"/>
        <path d="M-66-66 C-52-44 -40-30 -22-14 C-30 -32 -44 -52 -66 -66Z"/>
        <path d="M66 66 C52 44 40 30 22 14 C30 32 44 52 66 66Z"/>
        <path d="M-66 66 C-52 44 -40 30 -22 14 C-30 32 -44 52 -66 66Z"/>
      </g>
      <circle r="22" fill="#d9e0e8"/>
    </g>
    <g transform="translate(1350 260)">
      <circle r="72" fill="#ffffff"/>
      <g fill="none" stroke="#cfd6df" stroke-width="5" stroke-linecap="round">
        <path d="M0-82 C7-62 7-44 0-24 C-7-44 -7-62 0-82Z"/>
        <path d="M0 82 C7 62 7 44 0 24 C-7 44 -7 62 0 82Z"/>
        <path d="M82 0 C62 7 44 7 24 0 C44 -7 62 -7 82 0Z"/>
        <path d="M-82 0 C-62 7 -44 7 -24 0 C-44 -7 -62 -7 -82 0Z"/>
        <path d="M58-58 C46-38 35-26 19-12 C26 -28 38 -46 58 -58Z"/>
        <path d="M-58-58 C-46-38 -35-26 -19-12 C-26 -28 -38 -46 -58 -58Z"/>
        <path d="M58 58 C46 38 35 26 19 12 C26 28 38 46 58 58Z"/>
        <path d="M-58 58 C-46 38 -35 26 -19 12 C-26 28 -38 46 -58 58Z"/>
      </g>
      <circle r="18" fill="#d9e0e8"/>
    </g>
    <g transform="translate(980 720)">
      <circle r="98" fill="#ffffff"/>
      <g fill="none" stroke="#cfd6df" stroke-width="6" stroke-linecap="round">
        <path d="M0-108 C9-82 9-58 0-34 C-9-58 -9-82 0-108Z"/>
        <path d="M0 108 C9 82 9 58 0 34 C-9 58 -9 82 0 108Z"/>
        <path d="M108 0 C82 9 58 9 34 0 C58 -9 82 -9 108 0Z"/>
        <path d="M-108 0 C-82 9 -58 9 -34 0 C-58 -9 -82 -9 -108 0Z"/>
        <path d="M76-76 C60-50 46-34 26-16 C34 -38 50 -60 76 -76Z"/>
        <path d="M-76-76 C-60-50 -46-34 -26-16 C-34 -38 -50 -60 -76 -76Z"/>
        <path d="M76 76 C60 50 46 34 26 16 C34 38 50 60 76 76Z"/>
        <path d="M-76 76 C-60 50 -46 34 -26 16 C-34 38 -50 60 -76 76Z"/>
      </g>
      <circle r="24" fill="#d9e0e8"/>
    </g>
  </g>
</svg>
